<?xml version="1.0" encoding="UTF-8" standalone="no"?>
<!-- Created with Inkscape (http://www.inkscape.org/) -->

<svg
   version="1.1"
   id="svg2"
   width="910.66602"
   height="512"
   viewBox="0 0 1821.332 1024"
   sodipodi:docname="Preview.svg"
   inkscape:version="1.2 (dc2aedaf03, 2022-05-15)"
   xmlns:inkscape="http://www.inkscape.org/namespaces/inkscape"
   xmlns:sodipodi="http://sodipodi.sourceforge.net/DTD/sodipodi-0.dtd"
   xmlns="http://www.w3.org/2000/svg"
   xmlns:svg="http://www.w3.org/2000/svg">
  <sodipodi:namedview
     id="namedview7"
     pagecolor="#000000"
     bordercolor="#666666"
     borderopacity="1.0"
     inkscape:showpageshadow="2"
     inkscape:pageopacity="0"
     inkscape:pagecheckerboard="0"
     inkscape:deskcolor="#d1d1d1"
     showgrid="false"
     inkscape:zoom="0.78078633"
     inkscape:cx="674.32021"
     inkscape:cy="473.88125"
     inkscape:window-width="1920"
     inkscape:window-height="1019"
     inkscape:window-x="0"
     inkscape:window-y="31"
     inkscape:window-maximized="1"
     inkscape:current-layer="svg2" />
  <defs
     id="defs6" />
  <rect
     style="fill:#000000;fill-opacity:1;stroke:#000000;stroke-width:9.63356;stroke-linecap:butt;stroke-linejoin:miter;stroke-dasharray:none;stroke-opacity:1;paint-order:normal"
     id="rect19146"
     width="1811.6985"
     height="1014.3665"
     x="4.8167725"
     y="4.8167419" />
  <g
     id="g8">
    <path
       style="fill:#333333;fill-opacity:1;stroke-width:1.33333"
       d="m 884.66665,758.64507 c -11,-1.30403 -28.26353,-4.0207 -38.36341,-6.03702 l -18.3634,-3.66605 -4.8442,-6.59911 -4.84419,-6.59912 1.59472,-24.20521 c 0.87708,-13.31288 3.91619,-39.20523 6.75356,-57.53856 5.1302,-33.14828 5.20023,-33.42461 12.61299,-49.77612 l 7.45413,-16.44279 -14.96037,-16.22388 -14.96039,-16.22388 -18.66562,-7.70601 -18.66563,-7.70601 -20.04076,1.88725 -20.04076,1.88724 -25.33333,-4.70124 -25.33334,-4.70124 -19.33333,-13.60859 c -10.63333,-7.48472 -21.73333,-15.11537 -24.66667,-16.957 l -5.33333,-3.34842 -6.4839,-26.20851 c -3.56616,-14.41468 -6.18552,-27.34957 -5.82082,-28.7442 0.3647,-1.39463 5.9339,-10.98615 12.37599,-21.31448 9.0791,-14.55617 12.34817,-18.77879 14.53814,-18.77879 1.55391,0 10.00247,0.8952 18.7746,1.98935 21.1206,2.63436 20.50004,2.67833 20.20034,-1.43163 -0.23394,-3.20801 0.83785,-3.87818 15.74898,-9.84744 15.08406,-6.03849 16.02315,-6.63249 16.40428,-10.37622 0.34163,-3.35578 3.68819,-6.59084 21.59818,-20.8787 11.65665,-9.2992 22.79189,-18.83086 24.745,-21.18149 1.95309,-2.35063 11.36181,-12.24247 20.90825,-21.98187 l 17.35717,-17.708 50.34697,-5.95514 50.34699,-5.95515 50.67872,5.99439 50.67869,5.99438 17.3186,17.66876 c 9.5252,9.71782 18.9166,19.592 20.8697,21.94263 1.9531,2.35063 13.0883,11.88229 24.745,21.18149 17.91,14.28786 21.2565,17.52292 21.5982,20.8787 0.3812,3.74417 1.3184,4.33664 16.4042,10.36972 15.05,6.01873 15.9773,6.60344 15.6162,9.84744 -0.4531,4.07168 -1.6531,3.9835 19.7172,1.44878 9.1666,-1.08725 17.9462,-1.98204 19.5101,-1.98841 2.2213,-0.009 5.5038,4.24351 15,19.43244 6.6861,10.69421 12.1399,20.74421 12.1195,22.33333 -0.02,1.58912 -2.9044,14.27556 -6.409,28.1921 -6.2824,24.94712 -6.4365,25.33956 -10.9629,27.91956 -2.5251,1.43922 -13.5779,8.94437 -24.5618,16.6781 l -19.9708,14.06132 -25.9825,4.88188 -25.9825,4.88188 -19.8375,-1.89361 -19.8375,-1.89361 -18.4421,7.4984 -18.442,7.4984 -14.43387,16.06261 c -7.9386,8.83443 -14.25947,16.86553 -14.04636,17.84689 0.21309,0.98138 3.41728,8.5428 7.12041,16.80318 6.5132,14.52862 6.90256,16.10697 11.92798,48.35221 2.85724,18.33333 5.89974,43.94901 6.76114,56.92372 l 1.5662,23.59039 -4.94108,7.17417 -4.94104,7.17416 -22.94053,4.24763 c -21.64949,4.00857 -55.80955,8.41332 -62.54344,8.06461 -1.68507,-0.0872 -12.06376,-1.22557 -23.06376,-2.52961 z"
       id="path848" />
  </g>
</svg>
